<svg width="34" height="34" viewBox="0 0 34 34" fill="none" xmlns="http://www.w3.org/2000/svg">
<path d="M33.6499 16.0499C33.6499 25.4999 26.9499 33.2499 16.4499 33.2499C6.5999 33.2499 -9.76026e-05 25.8999 -9.76026e-05 17.1999C-9.76026e-05 7.7499 6.6999 -9.77516e-05 17.1999 -9.77516e-05C27.0499 -9.77516e-05 33.6499 7.3499 33.6499 16.0499ZM19.4999 31.3499C25.4999 31.3499 31.4499 26.1499 31.4499 19.1499C31.4499 9.5499 22.2999 1.8999 14.1499 1.8999C8.1999 1.8999 2.1999 7.0999 2.1999 14.0999C2.1999 23.6999 11.3499 31.3499 19.4999 31.3499Z" fill="white"/>
</svg>
