<svg width="1651" height="282" viewBox="0 0 1651 282" fill="none" xmlns="http://www.w3.org/2000/svg">
<path d="M117.889 282C47.2989 282 0 229.327 0 166.979C0 99.2558 48.0156 43.7158 123.264 43.7158C193.854 43.7158 241.153 96.3892 241.153 158.737C241.153 226.46 193.137 282 117.889 282ZM225.387 180.953C225.387 112.155 159.813 57.3321 101.406 57.3321C58.7653 57.3321 15.7663 94.5976 15.7663 144.763C15.7663 213.561 81.3398 268.384 139.747 268.384C182.746 268.384 225.387 231.118 225.387 180.953Z" fill="black"/>
<path d="M311.012 278.058C304.562 277.341 298.828 275.908 292.379 275.908C278.046 275.908 269.446 278.058 267.296 278.058C265.504 278.058 263.354 277.7 263.354 275.55C263.354 273.4 264.429 272.325 266.938 271.967C273.387 270.175 280.912 268.742 288.795 267.667C289.87 237.209 290.229 198.152 290.229 146.554C290.229 118.963 290.587 82.7724 288.437 36.5489C288.079 29.0241 286.645 20.066 281.271 20.066C274.104 20.066 268.371 26.8742 264.788 26.8742C262.996 26.8742 262.279 25.4409 262.279 23.6493C262.279 18.2744 292.02 0 307.07 0C313.52 0 313.52 5.37483 313.52 11.108C313.52 34.3989 312.087 135.804 312.087 180.594C323.195 172.353 341.111 158.378 361.177 158.378C390.56 158.378 402.743 185.969 402.743 213.202C402.743 251.542 383.752 280.208 348.277 280.208C327.494 280.208 315.311 270.175 311.012 266.233V278.058ZM378.735 217.502C378.735 192.419 367.985 171.995 347.561 171.995C332.511 171.995 320.686 182.744 312.087 189.911C311.728 201.019 311.012 215.352 311.012 223.951C311.012 231.834 311.012 246.884 317.103 256.559C322.12 265.875 335.019 271.967 346.127 271.967C367.269 271.967 378.735 248.676 378.735 217.502Z" fill="black"/>
<path d="M502.732 275.55C502.732 277.7 500.582 278.058 498.79 278.058C495.924 278.058 484.099 275.908 466.899 275.908C449.7 275.908 437.875 278.058 435.008 278.058C433.217 278.058 431.067 277.7 431.067 275.55C431.067 273.4 432.142 272.325 434.65 271.967C440.025 270.175 448.267 268.742 455.075 267.667C455.791 230.401 456.15 170.92 456.15 141.537C456.15 113.946 454.716 62.3481 454.716 36.5489C454.716 29.0241 452.925 20.066 447.55 20.066C440.383 20.066 434.65 26.8742 431.067 26.8742C429.275 26.8742 428.559 25.4409 428.559 23.6493C428.559 18.2744 458.3 0 473.349 0C479.799 0 479.799 5.37483 479.799 11.108C479.799 29.3824 478.007 113.946 478.007 141.537C478.007 170.92 478.007 230.401 478.724 267.667C485.532 268.742 493.774 270.175 499.149 271.967C501.657 272.325 502.732 273.4 502.732 275.55Z" fill="black"/>
<path d="M558.994 275.906C541.795 275.906 529.97 278.056 527.103 278.056C525.312 278.056 523.162 277.698 523.162 275.548C523.162 273.398 524.237 272.323 526.745 271.965C532.12 270.173 540.361 268.74 547.169 267.665C547.886 258.349 548.244 232.191 548.244 221.441C548.244 210.692 547.886 182.026 547.528 172.351C541.436 172.351 531.403 173.068 523.878 173.068C521.728 173.068 521.012 171.635 521.012 170.56C521.012 166.618 529.253 166.26 543.228 163.035C556.486 159.81 565.802 156.585 568.311 156.585C570.461 156.585 571.177 158.018 571.177 161.243C571.177 164.11 570.819 168.41 570.819 172.351C570.461 182.026 570.102 210.333 570.102 221.441C570.102 232.549 570.461 258.349 571.177 267.665C577.985 268.74 585.869 270.173 591.243 271.965C593.752 272.323 594.827 273.398 594.827 275.548C594.827 277.698 592.677 278.056 590.885 278.056C588.019 278.056 576.194 275.906 558.994 275.906ZM556.486 103.195C547.528 103.195 540.003 95.6704 540.003 86.7123C540.003 77.7543 547.528 70.2295 556.486 70.2295C565.444 70.2295 572.969 77.7543 572.969 86.7123C572.969 95.6704 565.444 103.195 556.486 103.195Z" fill="black"/>
<path d="M679.74 281.999C677.232 281.999 675.44 278.415 674.365 276.265C666.482 260.499 647.491 218.217 633.875 187.401C631.366 182.027 628.858 176.652 626.35 170.919C620.975 169.485 615.242 168.41 611.3 166.619C609.15 165.544 607.717 165.186 607.717 163.036C607.717 160.886 609.867 160.527 611.658 160.527C614.525 160.527 626.35 162.677 642.116 162.677C655.374 162.677 664.332 160.527 666.482 160.527C668.274 160.527 670.424 160.886 670.424 163.036C670.424 166.619 668.99 165.544 666.84 166.619C662.899 168.769 656.807 169.844 651.074 170.919C658.241 186.327 673.649 224.309 687.982 256.199C703.39 222.875 713.781 192.776 720.231 170.919C715.214 169.485 709.84 168.41 706.256 166.619C704.106 165.544 702.673 166.26 702.673 163.036C702.673 160.886 704.823 160.527 706.615 160.527C708.764 160.527 717.723 162.677 729.906 162.677C742.089 162.677 750.689 160.527 752.839 160.527C754.63 160.527 756.78 160.886 756.78 163.036C756.78 166.26 755.347 165.544 753.197 166.619C748.897 168.41 743.164 169.844 737.431 170.919C727.397 193.493 694.79 257.633 685.473 276.265C683.323 280.565 682.607 281.999 679.74 281.999Z" fill="black"/>
<path d="M969.25 282.001C904.393 282.001 858.527 234.702 858.527 168.054C858.527 101.406 907.976 43.7166 973.55 43.7166C996.483 43.7166 1022.28 50.1664 1038.76 55.1829C1039.84 49.4498 1041.63 36.5502 1043.78 32.2503C1044.5 30.1004 1045.93 29.0254 1047.36 29.0254C1049.16 29.0254 1050.23 30.4587 1050.23 32.6086C1050.23 35.4752 1047.01 66.2909 1047.01 81.3404C1047.01 97.4649 1048.8 127.564 1048.8 131.147C1048.8 134.73 1047.72 136.164 1045.93 136.164C1043.78 136.164 1043.06 134.73 1042.35 131.506C1039.12 119.681 1036.97 90.6568 1036.97 83.4904C1022.28 71.6657 996.841 54.4663 963.517 54.4663C918.009 54.4663 880.385 85.282 880.385 142.972C880.385 209.261 924.459 269.101 985.016 269.101C1026.58 269.101 1041.63 241.152 1046.65 241.152C1048.08 241.152 1049.51 242.227 1049.51 243.66C1049.51 244.735 1048.8 246.169 1048.08 247.244C1041.63 257.635 1012.25 282.001 969.25 282.001Z" fill="black"/>
<path d="M1152.71 275.55C1152.71 277.7 1150.56 278.058 1148.77 278.058C1145.9 278.058 1134.08 275.908 1116.88 275.908C1099.68 275.908 1087.85 278.058 1084.99 278.058C1083.19 278.058 1081.04 277.7 1081.04 275.55C1081.04 273.4 1082.12 272.325 1084.63 271.967C1090 270.175 1098.24 268.742 1105.05 267.667C1105.77 230.401 1106.13 170.92 1106.13 141.537C1106.13 113.946 1104.69 62.3481 1104.69 36.5489C1104.69 29.0241 1102.9 20.066 1097.53 20.066C1090.36 20.066 1084.63 26.8742 1081.04 26.8742C1079.25 26.8742 1078.54 25.4409 1078.54 23.6493C1078.54 18.2744 1108.28 0 1123.33 0C1129.78 0 1129.78 5.37483 1129.78 11.108C1129.78 29.3824 1127.98 113.946 1127.98 141.537C1127.98 170.92 1127.98 230.401 1128.7 267.667C1135.51 268.742 1143.75 270.175 1149.13 271.967C1151.63 272.325 1152.71 273.4 1152.71 275.55Z" fill="black"/>
<path d="M1208.96 275.906C1191.76 275.906 1179.93 278.056 1177.07 278.056C1175.27 278.056 1173.12 277.698 1173.12 275.548C1173.12 273.398 1174.2 272.323 1176.71 271.965C1182.08 270.173 1190.32 268.74 1197.13 267.665C1197.85 258.349 1198.21 232.191 1198.21 221.441C1198.21 210.692 1197.85 182.026 1197.49 172.351C1191.4 172.351 1181.37 173.068 1173.84 173.068C1171.69 173.068 1170.97 171.635 1170.97 170.56C1170.97 166.618 1179.22 166.26 1193.19 163.035C1206.45 159.81 1215.77 156.585 1218.27 156.585C1220.42 156.585 1221.14 158.018 1221.14 161.243C1221.14 164.11 1220.78 168.41 1220.78 172.351C1220.42 182.026 1220.07 210.333 1220.07 221.441C1220.07 232.549 1220.42 258.349 1221.14 267.665C1227.95 268.74 1235.83 270.173 1241.21 271.965C1243.71 272.323 1244.79 273.398 1244.79 275.548C1244.79 277.698 1242.64 278.056 1240.85 278.056C1237.98 278.056 1226.16 275.906 1208.96 275.906ZM1206.45 103.195C1197.49 103.195 1189.97 95.6704 1189.97 86.7123C1189.97 77.7543 1197.49 70.2295 1206.45 70.2295C1215.41 70.2295 1222.93 77.7543 1222.93 86.7123C1222.93 95.6704 1215.41 103.195 1206.45 103.195Z" fill="black"/>
<path d="M1422.88 278.057C1420.01 278.057 1408.19 275.907 1390.99 275.907C1373.79 275.907 1361.96 278.057 1359.09 278.057C1357.3 278.057 1355.15 277.699 1355.15 275.549C1355.15 273.399 1356.23 272.324 1358.74 271.966C1364.11 270.174 1372.35 268.741 1379.16 267.666C1379.88 258.349 1380.24 232.192 1380.24 221.442C1380.24 193.851 1380.24 171.994 1355.51 171.994C1339.03 171.994 1324.34 180.952 1314.66 186.685C1314.66 198.151 1314.3 209.618 1314.3 221.442C1314.3 232.192 1314.3 258.349 1315.38 267.666C1322.19 268.741 1330.07 270.174 1335.45 271.966C1337.95 272.324 1339.03 273.399 1339.03 275.549C1339.03 277.699 1336.88 278.057 1335.09 278.057C1332.22 278.057 1320.4 275.907 1303.2 275.907C1286 275.907 1274.17 278.057 1271.31 278.057C1269.51 278.057 1267.36 277.699 1267.36 275.549C1267.36 273.399 1268.44 272.324 1270.95 271.966C1276.32 270.174 1284.56 268.741 1291.37 267.666C1292.09 258.349 1292.45 232.192 1292.45 221.442C1292.45 210.693 1292.09 182.027 1291.37 172.352C1288.5 172.352 1271.66 173.069 1267.36 173.069C1265.57 173.069 1264.14 172.352 1264.14 170.561C1264.14 165.902 1267.72 167.336 1292.45 161.244C1304.63 158.378 1308.21 156.586 1311.44 156.586C1314.3 156.586 1315.02 158.736 1315.02 161.244C1315.02 164.111 1314.3 174.502 1314.3 179.16C1330.07 170.56 1354.44 158.378 1369.49 158.378C1395.29 158.378 1402.81 170.919 1402.81 190.627C1402.81 201.018 1402.09 211.768 1402.09 221.442C1402.09 232.192 1402.45 258.349 1403.17 267.666C1409.98 268.741 1417.86 270.174 1423.23 271.966C1425.74 272.324 1426.82 273.399 1426.82 275.549C1426.82 277.699 1424.67 278.057 1422.88 278.057Z" fill="black"/>
<path d="M1480.93 275.906C1463.73 275.906 1451.91 278.056 1449.04 278.056C1447.25 278.056 1445.1 277.698 1445.1 275.548C1445.1 273.398 1446.17 272.323 1448.68 271.965C1454.06 270.173 1462.3 268.74 1469.1 267.665C1469.82 258.349 1470.18 232.191 1470.18 221.441C1470.18 210.692 1469.82 182.026 1469.46 172.351C1463.37 172.351 1453.34 173.068 1445.81 173.068C1443.66 173.068 1442.95 171.635 1442.95 170.56C1442.95 166.618 1451.19 166.26 1465.16 163.035C1478.42 159.81 1487.74 156.585 1490.25 156.585C1492.4 156.585 1493.11 158.018 1493.11 161.243C1493.11 164.11 1492.75 168.41 1492.75 172.351C1492.4 182.026 1492.04 210.333 1492.04 221.441C1492.04 232.549 1492.4 258.349 1493.11 267.665C1499.92 268.74 1507.8 270.173 1513.18 271.965C1515.69 272.323 1516.76 273.398 1516.76 275.548C1516.76 277.698 1514.61 278.056 1512.82 278.056C1509.95 278.056 1498.13 275.906 1480.93 275.906ZM1478.42 103.195C1469.46 103.195 1461.94 95.6704 1461.94 86.7123C1461.94 77.7543 1469.46 70.2295 1478.42 70.2295C1487.38 70.2295 1494.9 77.7543 1494.9 86.7123C1494.9 95.6704 1487.38 103.195 1478.42 103.195Z" fill="black"/>
<path d="M1597.38 280.208C1571.58 280.208 1541.12 262.292 1541.12 222.876C1541.12 188.119 1569.07 158.378 1605.26 158.378C1620.31 158.378 1629.99 162.32 1637.51 165.545C1639.66 158.378 1640.74 151.57 1644.32 151.57C1645.75 151.57 1646.83 153.004 1646.83 155.154C1646.83 159.453 1644.68 173.07 1644.68 185.253C1644.68 196.002 1645.75 206.394 1645.75 209.619C1645.75 211.41 1645.04 212.843 1643.24 212.843C1638.94 212.843 1637.51 194.211 1636.08 187.044C1630.34 178.803 1614.58 166.62 1596.66 166.62C1578.75 166.62 1560.83 179.161 1560.83 207.469C1560.83 243.301 1585.2 264.8 1609.2 264.8C1633.21 264.8 1642.53 243.301 1647.19 243.301C1649.34 243.301 1650.05 244.376 1650.05 246.167C1650.05 249.392 1634.64 280.208 1597.38 280.208Z" fill="black"/>
</svg>
