<svg width="298" height="43" viewBox="0 0 298 43" fill="none" xmlns="http://www.w3.org/2000/svg">
<path d="M15.8469 1.28502C16.1339 1.78318 16.3028 2.41719 16.3478 3.18141C16.3928 3.88902 16.4153 4.77212 16.4153 5.80806V26.7873C16.5447 27.5232 16.8317 28.0779 17.2932 28.4912C17.749 28.9044 18.278 29.1026 18.897 29.1026H32.9768V28.4629H25.92C21.2943 28.4629 20.4895 28.1176 20.3714 27.6364C20.135 27.342 19.9887 26.9231 19.9268 26.3684C19.8649 25.8193 19.8368 25.14 19.8368 24.2795V0H13.8098C14.0462 0.045287 14.2544 0.0962349 14.4457 0.164165C15.076 0.379279 15.5487 0.758557 15.8526 1.28502H15.8469Z" fill="black"/>
<path d="M24.2769 17.6282C24.9522 18.2962 25.802 18.9472 26.798 19.5756C27.8222 20.2209 28.9871 20.9172 30.2589 21.6588C31.2155 22.2248 32.1047 22.7456 32.9094 23.2042C33.731 23.674 34.44 24.1835 35.0309 24.7156C35.6387 25.2647 36.1058 25.8931 36.4265 26.5837C36.7473 27.28 36.9105 28.1405 36.9105 29.1368C36.9105 32.7654 34.5751 34.6108 29.9719 34.6108C27.5577 34.6108 25.0817 33.7164 22.6 31.9559C22.4649 31.8597 22.3467 31.8144 22.2286 31.8144C22.1948 31.8144 22.0991 31.8144 21.9585 31.9672C21.8515 32.0804 21.8065 32.2106 21.8065 32.3691C21.8065 32.5899 21.9472 32.822 22.2229 33.0598L22.2342 33.0711L22.2455 33.0824C23.2021 34.0165 24.3614 34.741 25.7063 35.2335C27.0569 35.7317 28.5369 35.9864 30.1069 35.9864C31.677 35.9864 33.0276 35.7883 34.2712 35.4034C35.498 35.0184 36.5503 34.4693 37.3944 33.773C38.2273 33.0824 38.8857 32.2333 39.3415 31.2596C39.7973 30.2803 40.0337 29.1821 40.0337 27.982C40.0337 27.0536 39.9099 26.2271 39.6679 25.5251C39.4259 24.8288 39.0601 24.1835 38.5818 23.6004C38.0922 23.0117 37.4732 22.4456 36.7473 21.9248C35.9988 21.387 35.121 20.8096 34.1418 20.2209C32.8475 19.4567 31.6601 18.8283 30.6022 18.3471C29.5104 17.849 28.6044 17.3282 27.901 16.8017C27.0062 16.1394 26.3253 15.4092 25.8864 14.6336C25.4418 13.8468 25.2167 12.9353 25.2167 11.9221C25.2167 10.2917 25.757 8.9784 26.8205 8.01605C27.8729 7.06502 29.336 6.58385 31.1705 6.58385C33.2189 6.58385 34.8846 7.09332 36.1226 8.08964C36.9555 8.76328 37.5182 9.60109 37.7996 10.5861V7.82924C36.8373 7.16692 35.8413 6.68574 34.8452 6.38572C33.7873 6.06871 32.6336 5.90454 31.4238 5.90454C28.4187 5.90454 26.0946 6.54988 24.5189 7.81792C22.9489 9.08595 22.1836 10.7389 22.1836 12.8731C22.1836 13.8694 22.3636 14.7582 22.7238 15.4997C23.0896 16.2583 23.6073 16.9772 24.2713 17.6282H24.2769Z" fill="black"/>
<path d="M50.2192 16.0541H50.011C49.9998 19.3261 49.3526 22.5924 48.0977 25.604C46.8484 28.6213 44.997 31.3781 42.701 33.6821C40.3994 35.9861 37.6476 37.8258 34.6538 39.0656C31.6601 40.311 28.4187 40.9393 25.1773 40.9337C21.9415 40.9393 18.7002 40.311 15.7007 39.0656C12.7013 37.8258 9.94954 35.9861 7.65356 33.6821C5.35195 31.3781 3.50616 28.6213 2.25687 25.604C1.22706 23.1302 0.613672 20.4809 0.416713 17.8033H12.6563V15.7314H0.000284963V17.8033H0.0115398C-0.0784987 20.5545 0.360439 23.351 1.2552 26.0229C1.80668 27.6363 2.53824 29.1987 3.41049 30.6875C4.28274 32.1763 5.34632 33.5519 6.51119 34.8312L7.4172 35.7653L8.36824 36.6597C8.69463 36.9427 9.03227 37.2201 9.36991 37.4919C9.71881 37.7523 10.0621 38.0183 10.4166 38.2731C11.8403 39.2807 13.3654 40.1468 14.9636 40.8601C18.1712 42.264 21.6827 42.9659 25.1773 42.9999C28.6775 42.9716 32.1834 42.264 35.3967 40.8657C36.9948 40.1525 38.5199 39.2864 39.9436 38.2787C40.2981 38.024 40.6414 37.7579 40.9903 37.4975C41.3279 37.2258 41.6656 36.9484 41.9976 36.6654L42.9486 35.7709L43.8547 34.8369C45.0252 33.5575 46.0831 32.1763 46.9554 30.6931C47.8276 29.2043 48.5592 27.6419 49.1106 26.0286C50.1911 22.7906 50.6075 19.3601 50.2192 16.0598V16.0541Z" fill="black"/>
<path d="M87.5292 33.7529H70.8855C71.0318 33.334 71.0993 32.8699 71.0993 32.3718V5.66732C71.0993 5.14659 71.0318 4.67114 70.8855 4.24097H76.7935C76.6472 4.67114 76.5797 5.14659 76.5797 5.66732V31.3756H85.8749C86.5839 31.3643 87.1353 31.2964 87.5292 31.1832V33.7529Z" fill="black"/>
<path d="M100.245 4.24097H117.249V6.64086C116.754 6.4937 116.236 6.42578 115.707 6.42578H105.94V17.6668H115.449C116.135 17.6668 116.731 17.5989 117.249 17.4743V19.8742C116.822 19.7837 116.236 19.7497 115.494 19.7497H105.94V31.3756H115.426C115.955 31.3756 116.563 31.3077 117.249 31.1605V33.7529H100.268C100.392 33.3227 100.459 32.8473 100.459 32.3492V5.66732C100.459 5.07867 100.392 4.60322 100.245 4.24097Z" fill="black"/>
<path d="M141.23 31.9077L142.333 28.4097C143.211 29.0889 143.942 29.6097 144.516 29.9606C146.249 31.036 148.117 31.5794 150.131 31.5794C152.146 31.5794 153.71 31.0473 154.858 29.9832C155.882 29.0323 156.399 27.8663 156.399 26.4853C156.399 24.8665 155.668 23.5646 154.216 22.5685C153.541 22.1043 151.887 21.3119 149.242 20.1912C146.508 19.0252 144.572 17.8592 143.458 16.7159C142.13 15.3575 141.466 13.7726 141.466 11.9614C141.466 10.6595 141.804 9.44828 142.468 8.32757C143.132 7.20687 144.066 6.26729 145.27 5.52015C147.093 4.3768 149.456 3.81079 152.348 3.81079C154.813 3.81079 157.356 4.33152 159.989 5.38431L158.954 8.52002C156.422 6.9465 154.115 6.1654 152.011 6.1654C150.345 6.1654 148.995 6.64086 147.948 7.59176C147.07 8.41814 146.632 9.403 146.632 10.5577C146.632 11.9274 147.284 13.0708 148.578 13.9764C149.411 14.565 151.032 15.3575 153.429 16.3536C156.456 17.5989 158.504 18.7988 159.573 19.9874C160.912 21.4817 161.587 23.225 161.587 25.1948C161.587 26.5305 161.261 27.8211 160.619 29.055C159.967 30.2889 159.067 31.319 157.896 32.1567C156.028 33.5152 153.496 34.183 150.311 34.183C147.802 34.183 145.405 33.7189 143.132 32.802C142.614 32.5869 141.984 32.2926 141.23 31.919V31.9077Z" fill="black"/>
<path d="M180.909 19.5686V32.3492C180.909 32.8699 180.977 33.334 181.123 33.7529H175.215C175.361 33.368 175.429 32.8925 175.429 32.3492V5.64468C175.429 5.12395 175.361 4.65982 175.215 4.24097H181.123C180.977 4.71642 180.909 5.19187 180.909 5.66732V17.4064H195.314V5.66732C195.314 5.19187 195.246 4.71642 195.1 4.24097H201.008C200.861 4.65982 200.794 5.12395 200.794 5.64468V32.3378C200.794 32.8586 200.861 33.3227 201.008 33.7416H195.1C195.246 33.3227 195.314 32.8586 195.314 32.3378V19.5573H180.909V19.5686Z" fill="black"/>
<path d="M217.066 4.24097H222.974C222.85 4.59189 222.772 5.05603 222.76 5.64468V32.3265C222.772 32.9265 222.85 33.402 222.974 33.7529H217.066C217.212 33.3227 217.28 32.8473 217.28 32.3265V5.64468C217.28 5.13527 217.212 4.67114 217.066 4.24097Z" fill="black"/>
<path d="M241.621 9.68601V32.3152C241.621 32.8473 241.688 33.3227 241.835 33.7416H238.909C239.055 33.3114 239.123 32.8359 239.123 32.3152V5.66732C239.123 5.12395 239.055 4.6485 238.909 4.24097H244.119C244.198 4.52397 244.389 4.86358 244.693 5.25979L262.608 27.8097V5.66732C262.608 5.15791 262.541 4.68246 262.395 4.24097H265.32C265.197 4.56925 265.118 5.0447 265.107 5.64468V32.4284C265.118 33.0057 265.208 33.4472 265.343 33.7416H260.56C260.459 33.4925 260.223 33.1303 259.84 32.6435L241.61 9.68601H241.621Z" fill="black"/>
<path d="M280.996 4.24097H298V6.64086C297.505 6.4937 296.987 6.42578 296.458 6.42578H286.691V17.6668H296.2C296.886 17.6668 297.482 17.5989 298 17.4743V19.8742C297.572 19.7837 296.987 19.7497 296.245 19.7497H286.691V31.3756H296.177C296.706 31.3756 297.314 31.3077 298 31.1605V33.7529H281.019C281.143 33.3227 281.21 32.8473 281.21 32.3492V5.66732C281.21 5.07867 281.143 4.60322 280.996 4.24097Z" fill="black"/>
</svg>
