<svg width="289" height="69" viewBox="0 0 289 69" fill="none" xmlns="http://www.w3.org/2000/svg">
<g clip-path="url(#clip0_4607_1632)">
<path d="M25.1508 2.04441C25.6063 2.83695 25.8742 3.84564 25.9457 5.06148C26.0171 6.18725 26.0528 7.59222 26.0528 9.24035V42.6173C26.2583 43.7881 26.7138 44.6707 27.4461 45.3282C28.1696 45.9856 29.0091 46.3008 29.9916 46.3008H52.3379V45.2831H41.138C33.7964 45.2831 32.5192 44.7338 32.3316 43.9682C31.9565 43.4999 31.7243 42.8335 31.626 41.9508C31.5278 41.0772 31.4831 39.9965 31.4831 38.6276V0H21.9176C22.2927 0.0720495 22.6232 0.153105 22.9268 0.26118C23.9272 0.603415 24.6774 1.20683 25.1597 2.04441H25.1508Z" fill="white"/>
<path d="M38.53 28.0454C39.6018 29.1081 40.9504 30.1438 42.5313 31.1435C44.1568 32.1702 46.0056 33.278 48.0241 34.4578C49.5424 35.3584 50.9536 36.187 52.2308 36.9165C53.5348 37.664 54.6601 38.4746 55.5979 39.3211C56.5625 40.1947 57.3038 41.1944 57.8129 42.2932C58.322 43.4009 58.581 44.7699 58.581 46.355C58.581 52.1279 54.8745 55.064 47.5686 55.064C43.737 55.064 39.8072 53.641 35.8685 50.8401C35.6541 50.6869 35.4665 50.6149 35.279 50.6149C35.2254 50.6149 35.0736 50.6149 34.8503 50.8581C34.6806 51.0382 34.6091 51.2453 34.6091 51.4975C34.6091 51.8487 34.8324 52.218 35.2701 52.5963L35.2879 52.6143L35.3058 52.6323C36.8241 54.1183 38.664 55.2711 40.7986 56.0546C42.9421 56.8472 45.2911 57.2525 47.7829 57.2525C50.2748 57.2525 52.4183 56.9372 54.3922 56.3248C56.3392 55.7124 58.0094 54.8388 59.3491 53.731C60.6709 52.6323 61.7159 51.2814 62.4394 49.7323C63.1628 48.1742 63.5379 46.427 63.5379 44.5177C63.5379 43.0407 63.3414 41.7258 62.9574 40.609C62.5733 39.5013 61.9928 38.4746 61.2336 37.5469C60.4566 36.6103 59.4741 35.7096 58.322 34.8811C57.1341 34.0255 55.7408 33.1069 54.1867 32.1702C52.1325 30.9544 50.248 29.9547 48.5689 29.1892C46.8362 28.3966 45.3983 27.5681 44.2818 26.7305C42.8617 25.6768 41.781 24.515 41.0844 23.2811C40.3788 22.0292 40.0216 20.5792 40.0216 18.9671C40.0216 16.3734 40.879 14.2839 42.567 12.7529C44.2372 11.2398 46.5593 10.4743 49.471 10.4743C52.722 10.4743 55.3657 11.2849 57.3306 12.8699C58.6524 13.9417 59.5456 15.2746 59.9922 16.8417V12.4557C58.4649 11.4019 56.884 10.6364 55.3032 10.1591C53.6241 9.65473 51.7931 9.39355 49.8729 9.39355C45.1035 9.39355 41.4149 10.4203 38.9141 12.4376C36.4222 14.455 35.2075 17.0848 35.2075 20.4802C35.2075 22.0653 35.4933 23.4792 36.0649 24.659C36.6455 25.8659 37.4672 27.0097 38.5211 28.0454H38.53Z" fill="white"/>
<path d="M79.7037 25.5417H79.3733C79.3554 30.7473 78.3283 35.9438 76.3366 40.7351C74.3538 45.5354 71.4154 49.9214 67.7714 53.587C64.1184 57.2525 59.751 60.1795 54.9995 62.1518C50.248 64.1332 45.1035 65.1329 39.959 65.1239C34.8235 65.1329 29.679 64.1332 24.9186 62.1518C20.1581 60.1795 15.7907 57.2525 12.1467 53.587C8.49372 49.9214 5.56422 45.5354 3.58145 40.7351C1.94701 36.7994 0.973486 32.5845 0.660887 28.3246H20.0867V25.0283H-3.60097e-05V28.3246H0.0178268C-0.125076 32.7016 0.571573 37.1507 1.99166 41.4016C2.86694 43.9683 4.02802 46.4541 5.41239 48.8227C6.79675 51.1913 8.48479 53.3798 10.3336 55.4152L11.7715 56.9012L13.2809 58.3242C13.799 58.7745 14.3349 59.2158 14.8707 59.6481C15.4245 60.0624 15.9693 60.4857 16.532 60.891C18.7916 62.4941 21.212 63.872 23.7485 65.0068C28.8394 67.2403 34.4126 68.3571 39.959 68.4111C45.5144 68.3661 51.0786 67.2403 56.1784 65.0158C58.715 63.881 61.1354 62.5031 63.395 60.9C63.9577 60.4947 64.5025 60.0714 65.0562 59.6571C65.5921 59.2248 66.128 58.7835 66.655 58.3332L68.1644 56.9102L69.6023 55.4242C71.46 53.3888 73.1392 51.1913 74.5235 48.8317C75.9079 46.4631 77.069 43.9773 77.9442 41.4106C79.6591 36.259 80.32 30.8013 79.7037 25.5507V25.5417Z" fill="white"/>
<path d="M121.852 46.3366H108.642C108.758 46.0033 108.812 45.6341 108.812 45.2378V23.9922C108.812 23.5779 108.758 23.1997 108.642 22.8574H113.331C113.215 23.1997 113.161 23.5779 113.161 23.9922V44.4453H120.539C121.101 44.4363 121.539 44.3822 121.852 44.2922V46.3366Z" fill="white"/>
<path d="M131.944 22.8574H145.439V24.7667C145.046 24.6497 144.636 24.5956 144.216 24.5956H136.463V33.5388H144.01C144.555 33.5388 145.029 33.4847 145.439 33.3857V35.295C145.1 35.2229 144.636 35.1959 144.046 35.1959H136.463V44.4453H143.993C144.412 44.4453 144.895 44.3912 145.439 44.2741V46.3366H131.962C132.06 45.9943 132.114 45.6161 132.114 45.2198V23.9922C132.114 23.5239 132.06 23.1456 131.944 22.8574Z" fill="white"/>
<path d="M164.472 44.869L165.347 42.0861C166.044 42.6265 166.625 43.0407 167.08 43.3199C168.456 44.1755 169.938 44.6078 171.537 44.6078C173.136 44.6078 174.377 44.1845 175.288 43.3379C176.101 42.5814 176.512 41.6538 176.512 40.555C176.512 39.2671 175.931 38.2314 174.779 37.4389C174.243 37.0696 172.93 36.4392 170.831 35.5476C168.661 34.6199 167.125 33.6923 166.241 32.7827C165.187 31.7019 164.66 30.4411 164.66 29.0001C164.66 27.9644 164.928 27.0007 165.455 26.1091C165.982 25.2175 166.723 24.47 167.679 23.8756C169.125 22.9659 171.001 22.5156 173.296 22.5156C175.252 22.5156 177.271 22.9299 179.361 23.7675L178.539 26.2622C176.53 25.0103 174.699 24.3889 173.028 24.3889C171.707 24.3889 170.635 24.7672 169.804 25.5237C169.108 26.1811 168.759 26.9647 168.759 27.8833C168.759 28.9731 169.277 29.8827 170.304 30.6032C170.965 31.0715 172.251 31.7019 174.154 32.4945C176.556 33.4852 178.182 34.4398 179.03 35.3855C180.093 36.5743 180.629 37.9612 180.629 39.5283C180.629 40.5911 180.37 41.6178 179.861 42.5994C179.343 43.5811 178.628 44.4007 177.7 45.0671C176.217 46.1479 174.207 46.6792 171.68 46.6792C169.688 46.6792 167.786 46.31 165.982 45.5805C165.571 45.4094 165.071 45.1752 164.472 44.878V44.869Z" fill="white"/>
<path d="M195.964 35.0518V45.2198C195.964 45.6341 196.018 46.0033 196.134 46.3366H191.445C191.561 46.0304 191.615 45.6521 191.615 45.2198V23.9742C191.615 23.5599 191.561 23.1907 191.445 22.8574H196.134C196.018 23.2357 195.964 23.6139 195.964 23.9922V33.3316H207.397V23.9922C207.397 23.6139 207.343 23.2357 207.227 22.8574H211.916C211.8 23.1907 211.746 23.5599 211.746 23.9742V45.2108C211.746 45.6251 211.8 45.9943 211.916 46.3276H207.227C207.343 45.9943 207.397 45.6251 207.397 45.2108V35.0428H195.964V35.0518Z" fill="white"/>
<path d="M224.661 22.8574H229.35C229.252 23.1366 229.189 23.5059 229.18 23.9742V45.2018C229.189 45.6791 229.252 46.0574 229.35 46.3366H224.661C224.777 45.9943 224.831 45.6161 224.831 45.2018V23.9742C224.831 23.5689 224.777 23.1997 224.661 22.8574Z" fill="white"/>
<path d="M244.149 27.1894V45.1928C244.149 45.6161 244.203 45.9943 244.319 46.3276H241.997C242.113 45.9853 242.166 45.6071 242.166 45.1928V23.9922C242.166 23.5599 242.113 23.1816 241.997 22.8574H246.132C246.194 23.0826 246.346 23.3528 246.587 23.668L260.806 41.6083V23.9922C260.806 23.5869 260.753 23.2087 260.637 22.8574H262.959C262.86 23.1186 262.798 23.4969 262.789 23.9742V45.2828C262.798 45.7422 262.869 46.0934 262.977 46.3276H259.181C259.1 46.1294 258.913 45.8412 258.609 45.454L244.14 27.1894H244.149Z" fill="white"/>
<path d="M275.4 22.8574H288.895V24.7667C288.502 24.6497 288.092 24.5956 287.672 24.5956H279.919V33.5388H287.466C288.011 33.5388 288.485 33.4847 288.895 33.3857V35.295C288.556 35.2229 288.092 35.1959 287.502 35.1959H279.919V44.4453H287.449C287.868 44.4453 288.351 44.3912 288.895 44.2741V46.3366H275.418C275.516 45.9943 275.57 45.6161 275.57 45.2198V23.9922C275.57 23.5239 275.516 23.1456 275.4 22.8574Z" fill="white"/>
</g>
<defs>
<clipPath id="clip0_4607_1632">
<rect width="288.895" height="68.42" fill="white"/>
</clipPath>
</defs>
</svg>
